<?xml version="1.0" standalone="no"?>
<!DOCTYPE svg PUBLIC "-//W3C//DTD SVG 20010904//EN"
 "http://www.w3.org/TR/2001/REC-SVG-20010904/DTD/svg10.dtd">
<svg version="1.0" xmlns="http://www.w3.org/2000/svg"
 width="593.000000pt" height="519.000000pt" viewBox="0 0 593.000000 519.000000"
 preserveAspectRatio="xMidYMid meet">

<g transform="translate(0.000000,519.000000) scale(0.100000,-0.100000)"
fill="#000000" stroke="none">
<path d="M2017 5179 c-39 -23 -47 -69 -47 -266 0 -159 3 -193 18 -223 32 -65
104 -76 153 -24 23 25 24 31 27 216 4 218 1 246 -33 282 -26 28 -83 35 -118
15z"/>
<path d="M2890 5170 c-35 -35 -40 -66 -40 -258 0 -158 3 -192 18 -222 32 -65
104 -76 153 -24 23 25 24 32 27 207 4 217 0 257 -35 291 -33 33 -93 36 -123 6z"/>
<path d="M3771 5169 c-37 -34 -41 -62 -41 -257 0 -158 3 -192 18 -222 32 -65
104 -76 153 -24 23 25 24 32 27 207 4 214 -1 261 -33 293 -31 31 -92 33 -124
3z"/>
<path d="M1213 4453 c-31 -6 -70 -48 -77 -84 -11 -55 -7 -3430 4 -3470 6 -21
22 -45 38 -55 26 -18 90 -19 1772 -19 1645 0 1747 1 1773 17 16 11 30 33 37
57 7 27 9 582 8 1762 -3 1659 -4 1725 -22 1751 -10 16 -34 32 -55 38 -35 10
-3428 13 -3478 3z m3357 -1813 l0 -1620 -1620 0 -1620 0 0 1620 0 1620 1620 0
1620 0 0 -1620z"/>
<path d="M2021 4156 c-30 -17 -50 -52 -51 -89 0 -34 57 -97 88 -97 60 0 112
46 112 99 0 75 -83 124 -149 87z"/>
<path d="M2901 4156 c-28 -16 -50 -52 -51 -84 0 -51 48 -102 96 -102 30 0 81
31 93 56 40 90 -52 177 -138 130z"/>
<path d="M3781 4156 c-30 -17 -50 -52 -51 -89 0 -35 57 -97 90 -97 35 0 86 29
99 56 40 90 -52 177 -138 130z"/>
<path d="M1781 3846 c-52 -29 -50 23 -51 -1204 0 -1242 -3 -1184 55 -1210 20
-9 303 -12 1166 -12 1239 0 1181 -3 1207 55 9 20 12 303 12 1165 0 862 -3
1145 -12 1165 -26 58 32 55 -1210 55 -930 -1 -1147 -3 -1167 -14z m2189 -246
l0 -60 -329 0 -329 0 -31 -26 c-27 -22 -31 -32 -31 -74 0 -42 4 -52 31 -74
l31 -26 329 0 329 0 0 -860 0 -860 -1020 0 -1020 0 0 60 0 60 325 0 c216 0
332 4 348 11 31 14 47 48 47 99 0 30 -6 43 -31 64 l-31 26 -329 0 -329 0 0
860 0 860 1020 0 1020 0 0 -60z"/>
<path d="M2879 3511 c-41 -42 -41 -101 1 -143 28 -28 36 -30 78 -25 60 7 92
41 92 98 0 57 -42 99 -100 99 -33 0 -48 -6 -71 -29z"/>
<path d="M2625 3250 c-12 -4 -26 -14 -32 -21 -9 -12 -89 -218 -182 -469 -15
-41 -53 -140 -84 -220 -170 -442 -169 -439 -118 -491 23 -22 39 -29 69 -29 56
0 90 37 127 139 l29 81 240 -2 239 -3 32 -85 c20 -50 44 -94 60 -107 61 -53
165 -5 165 77 0 19 -50 154 -275 745 -59 154 -112 295 -118 313 -21 66 -90 98
-152 72z m130 -598 c42 -112 75 -205 72 -208 -2 -2 -74 -3 -159 -2 l-156 3 72
190 c40 105 75 199 79 209 4 10 9 17 12 15 2 -3 38 -96 80 -207z"/>
<path d="M3564 3242 c-12 -9 -27 -27 -33 -39 -8 -15 -11 -184 -11 -563 0 -379
3 -548 11 -563 32 -62 107 -76 159 -29 l31 27 0 565 -1 565 -30 28 c-36 32
-93 36 -126 9z"/>
<path d="M2879 1911 c-23 -23 -29 -38 -29 -71 0 -91 106 -135 171 -71 64 65
20 171 -71 171 -33 0 -48 -6 -71 -29z"/>
<path d="M1464 3612 c-62 -50 -54 -143 15 -172 80 -33 158 42 131 125 -19 59
-100 85 -146 47z"/>
<path d="M4334 3619 c-27 -13 -54 -60 -54 -92 0 -34 44 -84 81 -92 58 -13 119
35 119 94 0 73 -80 122 -146 90z"/>
<path d="M1467 2739 c-21 -12 -47 -61 -47 -89 0 -39 28 -78 65 -90 83 -27 158
51 125 131 -21 49 -97 75 -143 48z"/>
<path d="M4324 2732 c-91 -73 -11 -216 97 -172 96 40 64 190 -41 190 -19 0
-45 -8 -56 -18z"/>
<path d="M1464 1852 c-65 -52 -54 -147 20 -172 83 -27 153 43 126 125 -19 59
-100 85 -146 47z"/>
<path d="M4329 1855 c-53 -29 -61 -105 -17 -152 43 -46 125 -37 153 18 48 92
-45 183 -136 134z"/>
<path d="M2024 1299 c-25 -13 -54 -60 -54 -89 0 -51 49 -100 100 -100 51 0
100 49 100 99 0 72 -81 121 -146 90z"/>
<path d="M2904 1299 c-25 -13 -54 -60 -54 -89 0 -99 140 -136 186 -49 23 45
17 78 -20 115 -36 36 -71 43 -112 23z"/>
<path d="M3784 1299 c-25 -13 -54 -60 -54 -89 0 -99 140 -136 186 -49 23 45
17 78 -20 115 -36 36 -71 43 -112 23z"/>
<path d="M456 3605 c-41 -22 -55 -44 -56 -88 0 -47 32 -83 83 -92 19 -4 121
-5 225 -3 184 3 191 4 216 27 52 49 41 121 -24 153 -48 25 -399 26 -444 3z"/>
<path d="M5014 3609 c-45 -13 -69 -44 -69 -89 0 -47 25 -76 74 -90 47 -13 366
-13 413 0 45 13 68 43 68 88 0 46 -25 80 -69 92 -44 12 -374 12 -417 -1z"/>
<path d="M454 2726 c-77 -34 -75 -134 3 -171 30 -14 65 -16 238 -13 198 3 204
4 229 27 52 49 41 121 -24 153 -30 15 -64 18 -225 18 -138 -1 -199 -5 -221
-14z"/>
<path d="M5014 2729 c-45 -13 -69 -44 -69 -89 0 -47 25 -76 74 -90 39 -11 349
-14 400 -4 100 20 110 157 12 184 -44 12 -374 12 -417 -1z"/>
<path d="M455 1845 c-41 -22 -55 -43 -55 -86 0 -44 37 -86 84 -95 18 -3 119
-4 224 -2 l192 3 27 27 c34 34 38 95 9 127 -30 33 -80 41 -271 41 -142 0 -186
-3 -210 -15z"/>
<path d="M5014 1849 c-45 -13 -69 -44 -69 -89 0 -47 25 -76 74 -90 39 -11 349
-14 400 -4 100 20 110 157 12 184 -44 12 -374 12 -417 -1z"/>
<path d="M2030 638 c-51 -27 -60 -66 -60 -259 0 -205 4 -230 38 -264 29 -29
85 -34 119 -10 35 24 43 77 43 268 0 181 -7 226 -42 254 -23 20 -71 25 -98 11z"/>
<path d="M2910 638 c-51 -27 -60 -66 -60 -263 0 -193 8 -246 43 -270 28 -19
86 -19 114 0 35 24 43 77 43 268 0 181 -7 226 -42 254 -23 20 -71 25 -98 11z"/>
<path d="M3790 638 c-51 -27 -60 -66 -60 -263 0 -193 8 -246 43 -270 34 -24
90 -19 120 11 35 34 39 74 35 292 -3 178 -3 182 -28 207 -31 30 -77 40 -110
23z"/>
</g>
</svg>
